<svg xmlns="http://www.w3.org/2000/svg" width="38.73" height="35" viewBox="0 0 38.73 35"><defs><style>.a{fill:#3a3038;}</style></defs><path class="a" d="M12.479,22.334H33.057a1.132,1.132,0,0,0,1.091-.81L38.687,5.89a1.1,1.1,0,0,0-.185-.979,1.141,1.141,0,0,0-.906-.444H9.862L9.051.874A1.131,1.131,0,0,0,7.943,0H1.135A1.126,1.126,0,0,0,0,1.117,1.126,1.126,0,0,0,1.135,2.233h5.9l4.1,18.143A3.342,3.342,0,0,0,12.482,26.8H33.057a1.117,1.117,0,1,0,0-2.233H12.482a1.117,1.117,0,1,1,0-2.233ZM36.091,6.7,32.2,20.1H13.392L10.366,6.7Zm0,0" transform="translate(0)"/><path class="a" d="M150,364.1a4.1,4.1,0,1,0,4.1-4.1A4.1,4.1,0,0,0,150,364.1Zm4.1-1.367a1.367,1.367,0,1,1-1.367,1.367A1.368,1.368,0,0,1,154.1,362.733Zm0,0" transform="translate(-139.148 -333.2)"/><path class="a" d="M362,364.1a4.1,4.1,0,1,0,4.1-4.1A4.1,4.1,0,0,0,362,364.1Zm4.1-1.367a1.367,1.367,0,1,1-1.367,1.367A1.368,1.368,0,0,1,366.1,362.733Zm0,0" transform="translate(-336.935 -333.2)"/></svg>